HIERARCHY
ROOT Hips
{
	OFFSET 0.00000 0.00000 0.00000
	CHANNELS 6 Xposition Yposition Zposition Zrotation Yrotation Xrotation 
	JOINT RightUpLegDummy
	{
		OFFSET 0 0 0
		CHANNELS 3 Zrotation Yrotation Xrotation
		JOINT RightUpLeg
		{
			OFFSET -3.52197 -3.41223 0.04002
			CHANNELS 3 Zrotation Yrotation Xrotation
			JOINT RightLeg
			{
				OFFSET 0.00006 -17.42390 1.60435
				CHANNELS 3 Zrotation Yrotation Xrotation
				JOINT RightFoot
				{
					OFFSET 0.06154 -16.50078 -1.63900
					CHANNELS 3 Zrotation Yrotation Xrotation
					JOINT RightToes
					{
						OFFSET 0.00298 -1.73825 3.34613
						CHANNELS 3 Zrotation Yrotation Xrotation
						End Site
						{
							OFFSET 0.00480 -0.05416 3.85043
						}
					}
				}
			}
		}
	}
	JOINT SpineDummy
	{
		OFFSET 0 0 0
		CHANNELS 3 Zrotation Yrotation Xrotation
		JOINT Spine
		{
			OFFSET 0.00000 4.68130 0.00000
			CHANNELS 3 Zrotation Yrotation Xrotation
			JOINT Spine1
			{
				OFFSET -0.00000 10.10138 0.05002
				CHANNELS 3 Zrotation Yrotation Xrotation
				JOINT HEadDummy
				{
					OFFSET 0 0 0
					CHANNELS 3 Zrotation Yrotation Xrotation
					JOINT Head
					{
						OFFSET -0.00000 3.43865 0.00438
						CHANNELS 3 Zrotation Yrotation Xrotation
						End Site
						{
							OFFSET -0.11417 5.02924 0.98962
						}
					}
				}
				JOINT LeftShoulder1Dummy
				{
					OFFSET 0 0 0
					CHANNELS 3 Zrotation Yrotation Xrotation
					JOINT LeftShoulder1
					{
						OFFSET 3.53937 -0.14262 -0.08662
						CHANNELS 3 Zrotation Yrotation Xrotation
						JOINT LeftArm
						{
							OFFSET 4.04833 -0.00133 0.12681
							CHANNELS 3 Zrotation Yrotation Xrotation
							JOINT LeftForeArm
							{
								OFFSET 10.33880 -0.01036 -0.55515
								CHANNELS 3 Zrotation Yrotation Xrotation
								JOINT LeftHand
								{
									OFFSET 8.69677 0.07543 0.40060
									CHANNELS 3 Zrotation Yrotation Xrotation
									End Site
									{
										OFFSET 5.28377 -0.21905 0.59205
									}
								}
							}
						}
					}
				}
				JOINT RightShoulderDummy
				{
					OFFSET 0 0 0
					CHANNELS 3 Zrotation Yrotation Xrotation
					JOINT RightShoulder
					{
						OFFSET -3.53937 -0.14262 -0.08660
						CHANNELS 3 Zrotation Yrotation Xrotation
						JOINT RightArm
						{
							OFFSET -4.04833 -0.00133 0.12683
							CHANNELS 3 Zrotation Yrotation Xrotation
							JOINT RightForeArm
							{
								OFFSET -10.37987 -0.01039 -0.55511
								CHANNELS 3 Zrotation Yrotation Xrotation
								JOINT RightHand
								{
									OFFSET -8.67398 0.07538 0.40058
									CHANNELS 3 Zrotation Yrotation Xrotation
									End Site
									{
										OFFSET -5.24810 -0.21916 0.59204
									}
								}
							}
						}
					}
				}
			}
		}
	}
	JOINT LeftUpLegDummy
	{
		OFFSET 0 0 0
		CHANNELS 3 Zrotation Yrotation Xrotation
		JOINT LeftUpLeg
		{
			OFFSET 3.52197 -3.41223 0.04002
			CHANNELS 3 Zrotation Yrotation Xrotation
			JOINT LeftLeg
			{
				OFFSET -0.00012 -17.42399 1.60337
				CHANNELS 3 Zrotation Yrotation Xrotation
				JOINT LeftFoot
				{
					OFFSET -0.09972 -16.50070 -1.63802
					CHANNELS 3 Zrotation Yrotation Xrotation
					JOINT LeftToes
					{
						OFFSET -0.01575 -1.73823 3.34611
						CHANNELS 3 Zrotation Yrotation Xrotation
						End Site
						{
							OFFSET 0.03150 -0.01868 3.85031
						}
					}
				}
			}
		}
	}
}
MOTION
Frames: 7
Frame Time: 0.033333
40.5590 39.0486 -11.6213 1.6067 30.6576 -2.8688 0.0000 0.0000 0.0000 -5.1925 -11.5179 -10.4595 -3.9695 -12.3882 13.4199 5.2293 -0.6269 2.5656 0.0000 0.0000 -0.0000 0.0000 0.0000 0.0000 -6.8722 -3.6779 -7.5471 -5.6187 -1.8941 16.0147 0.0000 0.0000 0.0000 11.3323 -10.9945 -5.6388 0.0000 0.0000 0.0000 -20.6300 -2.4808 1.6188 -52.1343 -14.7108 -22.5877 -10.7806 5.3401 39.8160 14.6262 -3.3988 -1.0814 0.0000 0.0000 0.0000 20.1493 -0.1784 0.8851 62.0435 5.7511 23.8784 2.6655 21.4641 0.5985 -5.2656 0.4917 -0.2615 0.0000 0.0000 0.0000 -6.7128 -0.1812 3.2982 0.3229 15.5728 6.3028 4.5705 -0.0862 -8.0683 -0.0000 -0.0000 -0.0000
40.5675 39.0500 -11.6236 1.5586 30.6588 -2.8450 0.0000 0.0000 0.0000 -5.1596 -11.5470 -10.4923 -3.9337 -12.3503 13.3776 5.1981 -0.6267 2.6146 0.0000 0.0000 -0.0000 0.0000 0.0000 0.0000 -6.9099 -3.6761 -7.5407 -5.5285 -1.9163 16.1066 0.0000 0.0000 0.0000 11.4505 -11.0879 -5.8516 0.0000 0.0000 0.0000 -20.6634 -2.4505 1.6125 -52.1637 -14.6751 -22.5519 -10.8124 5.3426 39.6923 14.8132 -3.3608 -1.0914 0.0000 0.0000 0.0000 20.2566 -0.2262 0.8759 61.9230 5.7833 23.8590 2.5957 21.5068 0.8222 -5.1007 0.3995 -0.2499 0.0000 0.0000 0.0000 -6.6957 -0.1887 3.2363 0.3507 15.5696 6.3356 4.6329 -0.0903 -8.0742 -0.0000 -0.0000 -0.0000
40.5751 39.0538 -11.6309 1.4731 30.7025 -2.8445 0.0000 0.0000 0.0000 -5.1104 -11.5923 -10.4803 -3.8710 -12.3490 13.2632 5.1758 -0.6276 2.6975 0.0000 0.0000 -0.0000 0.0000 0.0000 0.0000 -6.9312 -3.6957 -7.4908 -5.4368 -1.9642 16.2170 0.0000 0.0000 0.0000 11.5377 -11.1503 -6.0532 0.0000 0.0000 0.0000 -20.6786 -2.4349 1.6091 -52.2432 -14.6720 -22.5786 -10.7779 5.3375 39.9303 15.2971 -3.5931 -1.1573 0.0000 0.0000 0.0000 20.3864 -0.2907 0.8626 61.7927 5.8760 24.0903 2.6232 21.5128 0.3721 -5.1142 0.3176 -0.2476 0.0000 0.0000 0.0000 -6.6323 -0.1646 3.1711 0.3518 15.5047 6.3642 4.6633 -0.0924 -8.0803 -0.0000 -0.0000 -0.0000
40.5833 39.0613 -11.6419 1.3713 30.7534 -2.8851 0.0000 0.0000 0.0000 -5.0685 -11.5513 -10.3982 -3.8203 -12.4651 13.0879 5.1635 -0.6317 2.8289 0.0000 0.0000 -0.0000 0.0000 0.0000 0.0000 -6.9848 -3.7261 -7.3340 -5.2690 -2.0553 16.2538 0.0000 0.0000 0.0000 11.4806 -11.1681 -6.1885 0.0000 0.0000 0.0000 -20.6881 -2.3928 1.5983 -52.3703 -14.6734 -22.6203 -10.7222 5.3322 40.1836 15.5487 -3.7792 -1.2006 0.0000 0.0000 0.0000 20.3835 -0.2998 0.8601 61.7867 5.9692 24.2181 2.7466 21.4625 -0.5162 -5.1154 -0.0776 -0.2336 0.0000 0.0000 0.0000 -6.5450 -0.1230 3.1593 0.3257 15.4190 6.3433 4.6184 -0.0898 -8.0834 -0.0000 -0.0000 -0.0000
40.5933 39.0705 -11.6557 1.2636 30.8064 -2.9233 0.0000 0.0000 0.0000 -5.0347 -11.3645 -10.2901 -3.8004 -12.7322 12.8547 5.1833 -0.6413 2.9976 0.0000 0.0000 -0.0000 0.0000 0.0000 0.0000 -7.0529 -3.7466 -7.1213 -5.0564 -2.1560 16.1741 0.0000 0.0000 0.0000 11.4056 -11.2071 -6.2741 0.0000 0.0000 0.0000 -20.6587 -2.3835 1.5941 -52.5341 -14.6182 -22.6054 -10.7121 5.3335 40.1411 15.4852 -3.7168 -1.1877 0.0000 0.0000 0.0000 20.3474 -0.2600 0.8696 61.8063 5.9767 24.0254 2.8090 21.4212 -0.7632 -4.9845 -0.4198 -0.2157 0.0000 0.0000 0.0000 -6.4684 -0.1077 3.1570 0.3149 15.3455 6.2868 4.5654 -0.0866 -8.0652 -0.0000 -0.0000 -0.0000
40.6055 39.0812 -11.6722 1.1315 30.8850 -2.9188 0.0000 0.0000 0.0000 -4.9845 -11.1244 -10.2158 -3.7827 -13.0726 12.5783 5.2377 -0.6564 3.1902 0.0000 0.0000 -0.0000 0.0000 0.0000 0.0000 -7.0428 -3.7575 -7.0018 -4.9163 -2.2184 16.1224 0.0000 0.0000 0.0000 11.4389 -11.2668 -6.3306 0.0000 0.0000 0.0000 -20.5797 -2.4788 1.6155 -52.7109 -14.5324 -22.5386 -10.7507 5.3432 39.8233 15.3958 -3.5287 -1.1569 0.0000 0.0000 0.0000 20.4032 -0.2304 0.8793 61.7530 5.9333 23.7092 2.7478 21.4260 -0.0434 -4.8507 -0.2125 -0.2169 0.0000 0.0000 0.0000 -6.3877 -0.1137 3.0996 0.3196 15.2587 6.2172 4.5462 -0.0857 -8.0199 -0.0000 -0.0000 -0.0000
40.6200 39.0937 -11.6894 0.9792 30.9806 -2.8918 0.0000 0.0000 0.0000 -4.9178 -11.0100 -10.1938 -3.7277 -13.3096 12.3358 5.2764 -0.6706 3.4053 0.0000 0.0000 -0.0000 0.0000 0.0000 0.0000 -6.9697 -3.7762 -7.0743 -4.8426 -2.2509 16.3341 0.0000 0.0000 0.0000 11.5069 -11.2395 -6.3591 0.0000 0.0000 0.0000 -20.5149 -2.5932 1.6426 -52.8769 -14.5439 -22.5308 -10.7348 5.3061 39.5739 15.2451 -3.3717 -1.1257 0.0000 0.0000 0.0000 20.4555 -0.2233 0.8828 61.7287 5.9784 23.6122 2.6667 21.4570 0.5809 -4.8235 0.2275 -0.2303 0.0000 0.0000 0.0000 -6.2826 -0.1014 3.0187 0.2955 15.1408 6.1198 4.5289 -0.0849 -7.9649 -0.0000 -0.0000 -0.0000
